<svg width="139.564453" height="44.363205" viewBox="0 0 139.564 44.3632" fill="none" xmlns="http://www.w3.org/2000/svg" xmlns:xlink="http://www.w3.org/1999/xlink">
	<desc>
			Created with Pixso.
	</desc>
	<defs/>
	<path id="path14" d="M34.55 19.66C27.55 15.41 16.01 15.02 9.33 17.09C8.25 17.43 7.12 16.81 6.79 15.71C6.47 14.62 7.07 13.46 8.15 13.12C15.82 10.75 28.57 11.2 36.62 16.09C37.59 16.68 37.91 17.95 37.33 18.93C36.76 19.92 35.51 20.24 34.55 19.66ZM34.32 25.95C33.83 26.76 32.79 27.02 31.99 26.52C26.16 22.85 17.26 21.79 10.36 23.93C9.46 24.21 8.52 23.69 8.25 22.78C7.98 21.87 8.48 20.9 9.37 20.62C17.26 18.18 27.06 19.36 33.77 23.57C34.56 24.07 34.81 25.14 34.32 25.95ZM31.67 31.99C31.28 32.64 30.44 32.85 29.81 32.45C24.71 29.27 18.29 28.55 10.73 30.31C10 30.48 9.28 30.01 9.11 29.27C8.94 28.53 9.4 27.78 10.13 27.62C18.4 25.68 25.49 26.51 31.22 30.09C31.85 30.49 32.06 31.34 31.67 31.99ZM21.71 0C9.72 0 0 9.93 0 22.18C0 34.43 9.72 44.36 21.71 44.36C33.7 44.36 43.42 34.43 43.42 22.18C43.42 9.93 33.7 0 21.71 0Z" fill="#1ED760" fill-opacity="1.000000" fill-rule="nonzero"/>
	<path id="path16" d="M59.07 20.47C55.32 19.56 54.65 18.92 54.65 17.57C54.65 16.3 55.82 15.44 57.57 15.44C59.26 15.44 60.94 16.09 62.69 17.43C62.75 17.47 62.81 17.49 62.88 17.48C62.94 17.47 63 17.43 63.04 17.38L64.87 14.74C64.95 14.63 64.93 14.48 64.82 14.4C62.73 12.68 60.38 11.85 57.62 11.85C53.58 11.85 50.75 14.33 50.75 17.88C50.75 21.69 53.19 23.04 57.4 24.08C60.99 24.92 61.6 25.63 61.6 26.89C61.6 28.3 60.37 29.17 58.4 29.17C56.21 29.17 54.43 28.41 52.43 26.65C52.38 26.6 52.31 26.58 52.25 26.59C52.18 26.59 52.12 26.62 52.08 26.68L50.03 29.17C49.94 29.27 49.95 29.43 50.05 29.52C52.38 31.64 55.23 32.76 58.32 32.76C62.68 32.76 65.5 30.32 65.5 26.55C65.5 23.37 63.64 21.61 59.07 20.47Z" fill="#1ED760" fill-opacity="1.000000" fill-rule="nonzero"/>
	<path id="path18" d="M78.53 24.74C78.53 27.43 76.91 29.31 74.59 29.31C72.29 29.31 70.56 27.35 70.56 24.74C70.56 22.14 72.29 20.18 74.59 20.18C76.87 20.18 78.53 22.09 78.53 24.74ZM75.37 16.7C73.48 16.7 71.93 17.46 70.65 19.01L70.65 17.26C70.65 17.12 70.54 17.01 70.4 17.01L67.04 17.01C66.91 17.01 66.8 17.12 66.8 17.26L66.8 36.76C66.8 36.89 66.91 37.01 67.04 37.01L70.4 37.01C70.54 37.01 70.65 36.89 70.65 36.76L70.65 30.6C71.93 32.07 73.48 32.78 75.37 32.78C78.88 32.78 82.44 30.02 82.44 24.74C82.44 19.46 78.88 16.7 75.37 16.7Z" fill="#1ED760" fill-opacity="1.000000" fill-rule="nonzero"/>
	<path id="path20" d="M91.55 29.34C89.15 29.34 87.33 27.36 87.33 24.74C87.33 22.11 89.08 20.2 91.5 20.2C93.92 20.2 95.74 22.18 95.74 24.8C95.74 27.43 93.98 29.34 91.55 29.34ZM91.55 16.7C87.03 16.7 83.48 20.25 83.48 24.8C83.48 29.29 87 32.81 91.5 32.81C96.04 32.81 99.59 29.27 99.59 24.74C99.59 20.23 96.06 16.7 91.55 16.7Z" fill="#1ED760" fill-opacity="1.000000" fill-rule="nonzero"/>
	<path id="path22" d="M109.25 17.01L105.56 17.01L105.56 13.15C105.56 13.01 105.45 12.9 105.31 12.9L101.96 12.9C101.82 12.9 101.71 13.01 101.71 13.15L101.71 17.01L100.1 17.01C99.96 17.01 99.85 17.12 99.85 17.26L99.85 20.21C99.85 20.35 99.96 20.46 100.1 20.46L101.71 20.46L101.71 28.09C101.71 31.17 103.21 32.73 106.17 32.73C107.38 32.73 108.38 32.48 109.32 31.93C109.4 31.89 109.44 31.8 109.44 31.71L109.44 28.91C109.44 28.82 109.4 28.74 109.33 28.69C109.25 28.65 109.16 28.64 109.09 28.68C108.44 29.01 107.82 29.17 107.12 29.17C106.04 29.17 105.56 28.67 105.56 27.55L105.56 20.46L109.25 20.46C109.39 20.46 109.5 20.35 109.5 20.21L109.5 17.26C109.5 17.12 109.39 17.01 109.25 17.01Z" fill="#1ED760" fill-opacity="1.000000" fill-rule="nonzero"/>
	<path id="path24" d="M122.12 17.02L122.12 16.55C122.12 15.16 122.65 14.53 123.82 14.53C124.52 14.53 125.08 14.68 125.71 14.89C125.79 14.92 125.87 14.9 125.93 14.86C126 14.81 126.03 14.73 126.03 14.65L126.03 11.76C126.03 11.65 125.96 11.55 125.86 11.52C125.2 11.32 124.34 11.11 123.07 11.11C119.97 11.11 118.33 12.9 118.33 16.27L118.33 16.99L116.72 16.99C116.58 16.99 116.47 17.11 116.47 17.25L116.47 20.21C116.47 20.35 116.58 20.46 116.72 20.46L118.33 20.46L118.33 32.22C118.33 32.36 118.44 32.47 118.58 32.47L121.93 32.47C122.07 32.47 122.18 32.36 122.18 32.22L122.18 20.46L125.31 20.46L130.11 32.22C129.57 33.45 129.03 33.7 128.3 33.7C127.71 33.7 127.09 33.52 126.45 33.16C126.39 33.13 126.32 33.12 126.26 33.14C126.19 33.17 126.14 33.22 126.11 33.28L124.97 35.83C124.92 35.95 124.96 36.09 125.08 36.15C126.27 36.81 127.34 37.09 128.66 37.09C131.14 37.09 132.51 35.91 133.72 32.74L139.54 17.37C139.57 17.29 139.56 17.2 139.52 17.13C139.47 17.07 139.4 17.02 139.32 17.02L135.82 17.02C135.72 17.02 135.62 17.09 135.59 17.19L132.01 27.64L128.09 17.19C128.05 17.09 127.96 17.02 127.86 17.02L122.12 17.02Z" fill="#1ED760" fill-opacity="1.000000" fill-rule="nonzero"/>
	<path id="path26" d="M114.66 17.01L111.31 17.01C111.17 17.01 111.06 17.12 111.06 17.26L111.06 32.22C111.06 32.36 111.17 32.47 111.31 32.47L114.66 32.47C114.8 32.47 114.91 32.36 114.91 32.22L114.91 17.26C114.91 17.12 114.8 17.01 114.66 17.01Z" fill="#1ED760" fill-opacity="1.000000" fill-rule="nonzero"/>
	<path id="path28" d="M113 10.2C111.67 10.2 110.59 11.3 110.59 12.65C110.59 14.01 111.67 15.12 113 15.12C114.33 15.12 115.41 14.01 115.41 12.65C115.41 11.3 114.33 10.2 113 10.2Z" fill="#1ED760" fill-opacity="1.000000" fill-rule="nonzero"/>
</svg>
